<?xml version="1.0" encoding="UTF-8"?>
<svg width="31px" height="31px" viewBox="0 0 31 31" version="1.1" xmlns="http://www.w3.org/2000/svg" xmlns:xlink="http://www.w3.org/1999/xlink">
    <title>all_contacts</title>
    <defs>
        <rect id="path-1" x="0" y="0" width="30" height="30"></rect>
    </defs>
    <g id="all_contacts" stroke="none" stroke-width="1" fill="none" fill-rule="evenodd">
        <g transform="translate(0.500000, 1.500000)">
            <mask id="mask-2" fill="white">
                <use xlink:href="#path-1"></use>
            </mask>
            <path d="M0,25.5 L0,22.5778 C0,21.8234 0.195693,21.1479 0.587079,20.5513 C0.978465,19.9547 1.52858,19.498 2.23741,19.1813 C3.75308,18.5 5.18337,17.9829 6.52828,17.6299 C7.8732,17.2764 9.36451,17.0997 11.0022,17.0997 C12.6405,17.0997 14.126,17.2764 15.4586,17.6299 C16.7912,17.9829 18.2276,18.5 19.7679,19.1813 C20.4521,19.498 20.9961,19.9547 21.3998,20.5513 C21.8029,21.1479 22.0045,21.8234 22.0045,22.5778 L22.0045,25.5 L0,25.5 Z M24.5719,25.5 L24.5719,22.5418 C24.5719,21.3486 24.2909,20.3199 23.7287,19.4557 C23.166,18.5914 22.4202,17.8672 21.4913,17.2828 C22.6649,17.4774 23.7895,17.7269 24.865,18.0314 C25.9412,18.3358 26.8827,18.6949 27.6895,19.1086 C28.3984,19.4983 28.9605,19.9912 29.376,20.5872 C29.792,21.1838 30,21.8354 30,22.5418 L30,25.5 L24.5719,25.5 Z M11.0022,14.3606 C9.58456,14.3606 8.40512,13.892 7.46391,12.9547 C6.52212,12.0174 6.05123,10.8426 6.05123,9.4303 C6.05123,8.01855 6.52212,6.84405 7.46391,5.90678 C8.40512,4.96893 9.58456,4.5 11.0022,4.5 C12.4205,4.5 13.6002,4.96893 14.5414,5.90678 C15.4826,6.84405 15.9532,8.01855 15.9532,9.4303 C15.9532,10.8426 15.4826,12.0174 14.5414,12.9547 C13.6002,13.892 12.4205,14.3606 11.0022,14.3606 Z M22.9586,9.4303 C22.9586,10.8426 22.488,12.0174 21.5468,12.9547 C20.605,13.892 19.4252,14.3606 18.0076,14.3606 C17.8362,14.3606 17.6467,14.3486 17.439,14.3247 C17.2313,14.3001 17.0417,14.2636 16.8704,14.2151 C17.4085,13.6062 17.818,12.8939 18.0991,12.0782 C18.3802,11.2625 18.5207,10.3798 18.5207,9.4303 C18.5207,8.48076 18.374,7.61653 18.0806,6.83762 C17.7872,6.0587 17.3838,5.32829 16.8704,4.64637 C17.0417,4.59788 17.2251,4.56135 17.4205,4.53681 C17.6159,4.51227 17.8116,4.5 18.0076,4.5 C19.4252,4.5 20.605,4.96893 21.5468,5.90678 C22.488,6.84405 22.9586,8.01855 22.9586,9.4303 Z" id="Shape" fill="#FFFFFF" fill-rule="nonzero" mask="url(#mask-2)"></path>
        </g>
    </g>
</svg>
