<svg width="26" height="26" viewBox="0 0 26 26" fill="none" xmlns="http://www.w3.org/2000/svg">
<path fill-rule="evenodd" clip-rule="evenodd" d="M13 26C20.1797 26 26 20.1797 26 13C26 5.8203 20.1797 0 13 0C5.8203 0 0 5.8203 0 13C0 16.3891 1.29689 19.4753 3.42147 21.7894C5.92565 19.4394 9.29466 18 12.9998 18C16.7051 18 20.0741 19.4394 22.5783 21.7895C22.1259 22.2822 21.636 22.74 21.113 23.1582C18.977 21.1971 16.1282 20 12.9998 20C9.87152 20 7.02279 21.1971 4.88672 23.1581C7.11051 24.9366 9.93107 26 13 26ZM13 12C14.6569 12 16 10.6569 16 9C16 7.34315 14.6569 6 13 6C11.3431 6 10 7.34315 10 9C10 10.6569 11.3431 12 13 12ZM13 14C15.7614 14 18 11.7614 18 9C18 6.23858 15.7614 4 13 4C10.2386 4 8 6.23858 8 9C8 11.7614 10.2386 14 13 14Z" fill="white"/>
</svg>
