<svg width="30" height="30" viewBox="0 0 30 30" fill="none" xmlns="http://www.w3.org/2000/svg">
<mask id="mask0_3206_4446" style="mask-type:alpha" maskUnits="userSpaceOnUse" x="0" y="0" width="30" height="30">
<rect width="30" height="30" fill="#D9D9D9"/>
</mask>
<g mask="url(#mask0_3206_4446)">
<path d="M0 25.5V22.5778C0 21.8234 0.195693 21.1479 0.587079 20.5513C0.978465 19.9547 1.52858 19.498 2.23741 19.1813C3.75308 18.5 5.18337 17.9829 6.52828 17.6299C7.8732 17.2764 9.36451 17.0997 11.0022 17.0997C12.6405 17.0997 14.126 17.2764 15.4586 17.6299C16.7912 17.9829 18.2276 18.5 19.7679 19.1813C20.4521 19.498 20.9961 19.9547 21.3998 20.5513C21.8029 21.1479 22.0045 21.8234 22.0045 22.5778V25.5H0ZM24.5719 25.5V22.5418C24.5719 21.3486 24.2909 20.3199 23.7287 19.4557C23.166 18.5914 22.4202 17.8672 21.4913 17.2828C22.6649 17.4774 23.7895 17.7269 24.865 18.0314C25.9412 18.3358 26.8827 18.6949 27.6895 19.1086C28.3984 19.4983 28.9605 19.9912 29.376 20.5872C29.792 21.1838 30 21.8354 30 22.5418V25.5H24.5719ZM11.0022 14.3606C9.58456 14.3606 8.40512 13.892 7.46391 12.9547C6.52212 12.0174 6.05123 10.8426 6.05123 9.4303C6.05123 8.01855 6.52212 6.84405 7.46391 5.90678C8.40512 4.96893 9.58456 4.5 11.0022 4.5C12.4205 4.5 13.6002 4.96893 14.5414 5.90678C15.4826 6.84405 15.9532 8.01855 15.9532 9.4303C15.9532 10.8426 15.4826 12.0174 14.5414 12.9547C13.6002 13.892 12.4205 14.3606 11.0022 14.3606ZM22.9586 9.4303C22.9586 10.8426 22.488 12.0174 21.5468 12.9547C20.605 13.892 19.4252 14.3606 18.0076 14.3606C17.8362 14.3606 17.6467 14.3486 17.439 14.3247C17.2313 14.3001 17.0417 14.2636 16.8704 14.2151C17.4085 13.6062 17.818 12.8939 18.0991 12.0782C18.3802 11.2625 18.5207 10.3798 18.5207 9.4303C18.5207 8.48076 18.374 7.61653 18.0806 6.83762C17.7872 6.0587 17.3838 5.32829 16.8704 4.64637C17.0417 4.59788 17.2251 4.56135 17.4205 4.53681C17.6159 4.51227 17.8116 4.5 18.0076 4.5C19.4252 4.5 20.605 4.96893 21.5468 5.90678C22.488 6.84405 22.9586 8.01855 22.9586 9.4303Z" fill="white"/>
</g>
</svg>
