<svg width="18" height="21" viewBox="0 0 18 21" fill="none" xmlns="http://www.w3.org/2000/svg">
<path d="M5 17.9219C4.6 17.9219 4.25 17.7719 3.95 17.4719C3.65 17.1719 3.5 16.8219 3.5 16.4219V2.42187C3.5 2.02187 3.65 1.67187 3.95 1.37187C4.25 1.07187 4.6 0.921875 5 0.921875H16C16.4 0.921875 16.75 1.07187 17.05 1.37187C17.35 1.67187 17.5 2.02187 17.5 2.42187V16.4219C17.5 16.8219 17.35 17.1719 17.05 17.4719C16.75 17.7719 16.4 17.9219 16 17.9219H5ZM5 16.4219H16V2.42187H5V16.4219ZM2 20.9219C1.6 20.9219 1.25 20.7719 0.95 20.4719C0.65 20.1719 0.5 19.8219 0.5 19.4219V4.34688H2V19.4219H13.85V20.9219H2ZM5 2.42187V16.4219V2.42187Z" fill="#7A17F9"/>
</svg>
