<?xml version="1.0" ?><svg viewBox="0 0 32 32" xmlns="http://www.w3.org/2000/svg"><defs><style>.cls-1{fill:#101820;}</style></defs><title/><g data-name="Layer 58" id="Layer_58"><path class="cls-1" d="M16,26a2,2,0,1,1,2-2A2,2,0,0,1,16,26Zm0-2Z"/><path class="cls-1" d="M16,20a1,1,0,0,1-1-1V11a1,1,0,0,1,2,0v8A1,1,0,0,1,16,20Z"/><path class="cls-1" d="M27.78,30H4.22a3.19,3.19,0,0,1-2.77-1.57,3.13,3.13,0,0,1-.06-3.13L13.17,3.67a3.23,3.23,0,0,1,5.66,0L30.61,25.3a3.13,3.13,0,0,1-.06,3.13A3.19,3.19,0,0,1,27.78,30ZM16,4a1.18,1.18,0,0,0-1.07.63L3.15,26.25a1.12,1.12,0,0,0,0,1.16,1.19,1.19,0,0,0,1,.59H27.78a1.19,1.19,0,0,0,1-.59,1.12,1.12,0,0,0,0-1.16L17.07,4.63A1.18,1.18,0,0,0,16,4Z"/></g></svg>