<svg width="20" height="21" viewBox="0 0 20 21" fill="none" xmlns="http://www.w3.org/2000/svg">
<path fill-rule="evenodd" clip-rule="evenodd" d="M10 20.9746C8.63333 20.9746 7.34167 20.7121 6.125 20.1871C4.90833 19.6621 3.84583 18.9454 2.9375 18.0371C2.02917 17.1288 1.3125 16.0663 0.7875 14.8496C0.2625 13.6329 0 12.3413 0 10.9746C0 9.59128 0.2625 8.29128 0.7875 7.07461C1.3125 5.85794 2.02917 4.79961 2.9375 3.89961C3.84583 2.99961 4.90833 2.28711 6.125 1.76211C7.34167 1.23711 8.63333 0.974609 10 0.974609C11.3833 0.974609 12.6833 1.23711 13.9 1.76211C15.1167 2.28711 16.175 2.99961 17.075 3.89961C17.975 4.79961 18.6875 5.85794 19.2125 7.07461C19.7375 8.29128 20 9.59128 20 10.9746C20 12.3413 19.7375 13.6329 19.2125 14.8496C18.6875 16.0663 17.975 17.1288 17.075 18.0371C16.175 18.9454 15.1167 19.6621 13.9 20.1871C12.6833 20.7121 11.3833 20.9746 10 20.9746ZM15.5999 8.44958L8.5249 15.5246L4.3999 11.3746L5.5249 10.2496L8.5249 13.2496L14.4499 7.32458L15.5999 8.44958Z" fill="#18C669"/>
</svg>
