<svg width="16" height="8" viewBox="0 0 16 8" fill="none" xmlns="http://www.w3.org/2000/svg">
<path d="M7.19612 7.66582H4.21572C3.18501 7.66582 2.30654 7.30246 1.58031 6.57575C0.853594 5.84952 0.490234 4.97105 0.490234 3.94033C0.490234 2.90961 0.853594 2.0309 1.58031 1.30418C2.30654 0.577955 3.18501 0.214844 4.21572 0.214844H7.19612V1.70504H4.21572C3.59481 1.70504 3.06703 1.92236 2.63239 2.357C2.19775 2.79164 1.98043 3.31942 1.98043 3.94033C1.98043 4.56125 2.19775 5.08903 2.63239 5.52367C3.06703 5.95831 3.59481 6.17563 4.21572 6.17563H7.19612V7.66582ZM4.96082 4.68543V3.19524H10.9216V4.68543H4.96082ZM8.68631 7.66582V6.17563H11.6667C12.2876 6.17563 12.8154 5.95831 13.25 5.52367C13.6847 5.08903 13.902 4.56125 13.902 3.94033C13.902 3.31942 13.6847 2.79164 13.25 2.357C12.8154 1.92236 12.2876 1.70504 11.6667 1.70504H8.68631V0.214844H11.6667C12.6974 0.214844 13.5761 0.577955 14.3029 1.30418C15.0291 2.0309 15.3922 2.90961 15.3922 3.94033C15.3922 4.97105 15.0291 5.84952 14.3029 6.57575C13.5761 7.30246 12.6974 7.66582 11.6667 7.66582H8.68631Z" fill="red"/>
</svg>
