<svg width="147" height="27" viewBox="0 0 147 27" fill="none" xmlns="http://www.w3.org/2000/svg">
<path d="M24.5826 7.21953L23.275 13.0031L21.6028 6.02511L15.7439 3.64883L14.1597 10.6394L12.7641 2.44183L6.90511 0.078125L0.870117 26.7578H7.26972L9.11794 18.5603L10.5135 26.7578H16.9257L18.4973 19.7673L20.1695 26.7578H26.5691L30.4541 9.58323L24.5826 7.21953Z" fill="#363A3F"/>
<path d="M68.663 12.3862C68.663 11.914 68.2803 11.5312 67.8081 11.5312C67.3359 11.5312 66.9531 11.914 66.9531 12.3862V25.9021C66.9531 26.3743 67.3359 26.757 67.8081 26.757C68.2803 26.757 68.663 26.3743 68.663 25.9021V12.3862Z" fill="#363A3F"/>
<path d="M100.925 12.3862C100.925 11.914 100.542 11.5312 100.07 11.5312C99.5981 11.5312 99.2153 11.914 99.2153 12.3862V25.9021C99.2153 26.3743 99.5981 26.757 100.07 26.757C100.542 26.757 100.925 26.3743 100.925 25.9021V12.3862Z" fill="#363A3F"/>
<path d="M50.948 20.106L45.504 11.9336C45.3405 11.6821 45.0639 11.5312 44.7622 11.5312H44.561C44.0958 11.5312 43.7061 11.921 43.7061 12.3862V25.9021C43.7061 26.3673 44.0958 26.757 44.561 26.757C45.0262 26.757 45.416 26.3673 45.416 25.9021V14.5865L50.2565 21.6902C50.4703 22.0045 50.7092 22.1176 50.948 22.1176C51.1869 22.1176 51.4258 22.017 51.6396 21.6902L56.4801 14.5865V25.9021C56.4801 26.3673 56.8699 26.757 57.3351 26.757C57.8003 26.757 58.19 26.3673 58.19 25.9021V12.3862C58.19 11.921 57.8003 11.5312 57.3351 11.5312H57.1339C56.8322 11.5312 56.5556 11.6821 56.3921 11.9336L50.948 20.106Z" fill="#363A3F"/>
<path d="M116.93 20.106L111.486 11.9336C111.323 11.6821 111.046 11.5312 110.745 11.5312H110.543C110.078 11.5312 109.688 11.921 109.688 12.3862V25.9021C109.688 26.3673 110.078 26.757 110.543 26.757C111.009 26.757 111.398 26.3673 111.398 25.9021V14.5865L116.239 21.6902C116.453 22.0045 116.692 22.1176 116.93 22.1176C117.169 22.1176 117.408 22.017 117.622 21.6902L122.463 14.5865V25.9021C122.463 26.3673 122.852 26.757 123.317 26.757C123.783 26.757 124.172 26.3673 124.172 25.9021V12.3862C124.172 11.921 123.783 11.5312 123.317 11.5312H123.116C122.815 11.5312 122.538 11.6821 122.375 11.9336L116.93 20.106Z" fill="#363A3F"/>
<path d="M88.742 23.9658L79.262 11.8707C79.0986 11.657 78.8346 11.5312 78.558 11.5312H78.2939C77.8287 11.5312 77.439 11.921 77.439 12.3862V25.9021C77.439 26.3673 77.8287 26.757 78.2939 26.757C78.7591 26.757 79.1489 26.3673 79.1489 25.9021V14.3224L88.5031 26.2541L88.6288 26.4176C88.7923 26.6313 89.0563 26.757 89.3329 26.757H89.597C90.0622 26.757 90.4519 26.3673 90.4519 25.9021V12.3862C90.4519 11.921 90.0622 11.5312 89.597 11.5312C89.1318 11.5312 88.742 11.921 88.742 12.3862V23.9658V23.9658Z" fill="#363A3F"/>
<path d="M146.225 25.6129C146.225 25.6129 140.241 12.5245 140.077 12.185C139.914 11.8456 139.562 11.5312 138.996 11.5312C138.43 11.5312 138.078 11.833 137.915 12.185C137.751 12.5371 131.766 25.6129 131.766 25.6129C131.578 26.0152 131.766 26.493 132.169 26.6816C132.571 26.8702 133.049 26.6816 133.237 26.2793L134.834 22.7211H143.183L144.779 26.2793C144.968 26.6816 145.446 26.8576 145.848 26.6816C146.25 26.493 146.426 26.0152 146.25 25.6129H146.225ZM138.996 21.1495H135.526L138.996 13.4298L142.466 21.1495H138.996Z" fill="#363A3F"/>
</svg>
