<svg width="86" height="86" viewBox="0 0 86 86" fill="none" xmlns="http://www.w3.org/2000/svg">
<g filter="url(#filter0_d_2425_23)">
<circle cx="43" cy="39" r="28" fill="#7A17F9"/>
</g>
<mask id="mask0_2425_23" style="mask-type:alpha" maskUnits="userSpaceOnUse" x="24" y="20" width="37" height="37">
<rect x="24.7998" y="20.7988" width="36" height="36" fill="#D9D9D9"/>
</mask>
<g mask="url(#mask0_2425_23)">
<path d="M52.1751 41.4241V36.736H47.487V34.8613H52.1751V30.1741H54.0498V34.8613H58.737V36.736H54.0498V41.4241H52.1751ZM38.2998 38.311C36.8496 38.311 35.6433 37.8298 34.6809 36.8674C33.7185 35.905 33.2373 34.6987 33.2373 33.2485C33.2373 31.7989 33.7185 30.5929 34.6809 29.6305C35.6433 28.6675 36.8496 28.186 38.2998 28.186C39.75 28.186 40.9563 28.6675 41.9187 29.6305C42.8811 30.5929 43.3623 31.7989 43.3623 33.2485C43.3623 34.6987 42.8811 35.905 41.9187 36.8674C40.9563 37.8298 39.75 38.311 38.2998 38.311ZM27.0498 49.7491V46.7485C27.0498 45.9985 27.2499 45.3112 27.6501 44.6866C28.0497 44.0614 28.6122 43.5862 29.3376 43.261C30.9624 42.511 32.4936 41.9674 33.9312 41.6302C35.3688 41.2924 36.825 41.1235 38.2998 41.1235C39.75 41.1235 41.1936 41.2924 42.6306 41.6302C44.0682 41.9674 45.612 42.511 47.262 43.261C47.9874 43.6114 48.5499 44.0926 48.9495 44.7046C49.3497 45.3172 49.5498 45.9985 49.5498 46.7485V49.7491H27.0498ZM28.9245 47.8735H47.6751V46.7485C47.6751 46.3987 47.5626 46.0612 47.3376 45.736C47.1126 45.4114 46.8126 45.1489 46.4376 44.9485C44.9376 44.2489 43.5564 43.7491 42.294 43.4491C41.031 43.1491 39.6996 42.9991 38.2998 42.9991C36.9 42.9991 35.5626 43.1491 34.2876 43.4491C33.0126 43.7491 31.6251 44.2489 30.1251 44.9485C29.7501 45.1489 29.4564 45.4114 29.244 45.736C29.031 46.0612 28.9245 46.3987 28.9245 46.7485V47.8735ZM38.2998 36.4363C39.1998 36.4363 39.9561 36.13 40.5687 35.5174C41.1813 34.9048 41.4876 34.1485 41.4876 33.2485C41.4876 32.3485 41.1813 31.5925 40.5687 30.9805C39.9561 30.3679 39.1998 30.0616 38.2998 30.0616C37.3998 30.0616 36.6435 30.3679 36.0309 30.9805C35.4183 31.5925 35.112 32.3485 35.112 33.2485C35.112 34.1485 35.4183 34.9048 36.0309 35.5174C36.6435 36.13 37.3998 36.4363 38.2998 36.4363Z" fill="white"/>
</g>
<defs>
<filter id="filter0_d_2425_23" x="0" y="0" width="86" height="86" filterUnits="userSpaceOnUse" color-interpolation-filters="sRGB">
<feFlood flood-opacity="0" result="BackgroundImageFix"/>
<feColorMatrix in="SourceAlpha" type="matrix" values="0 0 0 0 0 0 0 0 0 0 0 0 0 0 0 0 0 0 127 0" result="hardAlpha"/>
<feOffset dy="4"/>
<feGaussianBlur stdDeviation="7.5"/>
<feComposite in2="hardAlpha" operator="out"/>
<feColorMatrix type="matrix" values="0 0 0 0 0 0 0 0 0 0 0 0 0 0 0 0 0 0 0.04 0"/>
<feBlend mode="normal" in2="BackgroundImageFix" result="effect1_dropShadow_2425_23"/>
<feBlend mode="normal" in="SourceGraphic" in2="effect1_dropShadow_2425_23" result="shape"/>
</filter>
</defs>
</svg>
