<svg width="137" height="54" viewBox="0 0 137 54" fill="none" xmlns="http://www.w3.org/2000/svg">
<path fill-rule="evenodd" clip-rule="evenodd" d="M27.9941 54C13.0766 54 0.994141 41.9175 0.994141 27C0.994141 12.0825 13.0766 0 27.9941 0C31.1666 0 34.1366 0.674998 36.9716 1.62C31.3691 8.5725 27.9941 17.415 27.9941 27C27.9941 36.585 31.3691 45.4275 36.9716 52.38C34.1366 53.325 31.1666 54 27.9941 54ZM109.006 54C123.924 54 136.006 41.9175 136.006 27C136.006 12.0825 123.924 0 109.006 0C105.834 0 102.864 0.674998 100.029 1.62C105.631 8.5725 109.006 17.415 109.006 27C109.006 36.585 105.631 45.4275 100.029 52.38C102.864 53.325 105.834 54 109.006 54ZM95.4936 27C95.4936 41.9117 83.4053 54 68.4936 54C53.5819 54 41.4936 41.9117 41.4936 27C41.4936 12.0883 53.5819 0 68.4936 0C83.4053 0 95.4936 12.0883 95.4936 27Z" fill="#7A17F9"/>
</svg>
