<svg width="32" height="22" viewBox="0 0 32 22" fill="none" xmlns="http://www.w3.org/2000/svg">
<path d="M25.1751 13.4241V8.73604H20.487V6.86133H25.1751V2.17413H27.0498V6.86133H31.737V8.73604H27.0498V13.4241H25.1751ZM11.2998 10.311C9.8496 10.311 8.6433 9.82983 7.6809 8.86743C6.7185 7.90504 6.23731 6.69874 6.23731 5.24854C6.23731 3.79894 6.7185 2.59293 7.6809 1.63053C8.6433 0.667535 9.8496 0.186035 11.2998 0.186035C12.75 0.186035 13.9563 0.667535 14.9187 1.63053C15.8811 2.59293 16.3623 3.79894 16.3623 5.24854C16.3623 6.69874 15.8811 7.90504 14.9187 8.86743C13.9563 9.82983 12.75 10.311 11.2998 10.311ZM0.0498047 21.7491V18.7485C0.0498047 17.9985 0.249905 17.3112 0.650105 16.6866C1.0497 16.0614 1.6122 15.5862 2.3376 15.261C3.9624 14.511 5.4936 13.9674 6.9312 13.6302C8.3688 13.2924 9.82501 13.1235 11.2998 13.1235C12.75 13.1235 14.1936 13.2924 15.6306 13.6302C17.0682 13.9674 18.612 14.511 20.262 15.261C20.9874 15.6114 21.5499 16.0926 21.9495 16.7046C22.3497 17.3172 22.5498 17.9985 22.5498 18.7485V21.7491H0.0498047ZM1.9245 19.8735H20.6751V18.7485C20.6751 18.3987 20.5626 18.0612 20.3376 17.736C20.1126 17.4114 19.8126 17.1489 19.4376 16.9485C17.9376 16.2489 16.5564 15.7491 15.294 15.4491C14.031 15.1491 12.6996 14.9991 11.2998 14.9991C9.90001 14.9991 8.5626 15.1491 7.2876 15.4491C6.0126 15.7491 4.6251 16.2489 3.1251 16.9485C2.7501 17.1489 2.4564 17.4114 2.244 17.736C2.031 18.0612 1.9245 18.3987 1.9245 18.7485V19.8735ZM11.2998 8.43633C12.1998 8.43633 12.9561 8.13003 13.5687 7.51744C14.1813 6.90483 14.4876 6.14853 14.4876 5.24854C14.4876 4.34854 14.1813 3.59253 13.5687 2.98053C12.9561 2.36793 12.1998 2.06163 11.2998 2.06163C10.3998 2.06163 9.64351 2.36793 9.0309 2.98053C8.41831 3.59253 8.11201 4.34854 8.11201 5.24854C8.11201 6.14853 8.41831 6.90483 9.0309 7.51744C9.64351 8.13003 10.3998 8.43633 11.2998 8.43633Z" fill="white"/>
</svg>
