<svg width="30" height="30" viewBox="0 0 30 30" fill="none" xmlns="http://www.w3.org/2000/svg">
<mask id="mask0_3206_4462" style="mask-type:alpha" maskUnits="userSpaceOnUse" x="0" y="0" width="30" height="30">
<rect width="30" height="30" fill="#D9D9D9"/>
</mask>
<g mask="url(#mask0_3206_4462)">
<path d="M6.61852 22.5949C7.91855 21.6824 9.24704 20.9697 10.604 20.4568C11.9609 19.9434 13.4263 19.6867 15 19.6867C16.5737 19.6867 18.0391 19.9434 19.396 20.4568C20.753 20.9697 22.0815 21.6824 23.3815 22.5949C24.3394 21.5001 25.0636 20.3255 25.554 19.0709C26.0445 17.8168 26.2897 16.4599 26.2897 15C26.2897 11.8296 25.2007 9.15535 23.0227 6.97733C20.8446 4.7993 18.1704 3.71029 15 3.71029C11.8296 3.71029 9.15535 4.7993 6.97733 6.97733C4.7993 9.15535 3.71029 11.8296 3.71029 15C3.71029 16.4599 3.95551 17.8168 4.44597 19.0709C4.93642 20.3255 5.6606 21.5001 6.61852 22.5949ZM15 15.8556C13.7684 15.8556 12.7251 15.4335 11.8701 14.5895C11.0145 13.7454 10.5867 12.6964 10.5867 11.4423C10.5867 10.2107 11.0145 9.17287 11.8701 8.32881C12.7251 7.48475 13.7684 7.06272 15 7.06272C16.2316 7.06272 17.2749 7.49049 18.1299 8.34605C18.9855 9.20106 19.4132 10.2444 19.4132 11.476C19.4132 12.7076 18.9855 13.7454 18.1299 14.5895C17.2749 15.4335 16.2316 15.8556 15 15.8556ZM15 28C13.198 28 11.5102 27.6579 9.93646 26.9737C8.36274 26.2894 6.98855 25.3603 5.81387 24.1861C4.63974 23.0115 3.71056 21.6373 3.02634 20.0635C2.34211 18.4898 2 16.802 2 15C2 13.198 2.34211 11.5102 3.02634 9.93646C3.71056 8.36274 4.63974 6.98882 5.81387 5.81469C6.98855 4.64001 8.36274 3.71056 9.93646 3.02634C11.5102 2.34211 13.198 2 15 2C16.802 2 18.4898 2.34211 20.0635 3.02634C21.6373 3.71056 23.0112 4.64001 24.1853 5.81469C25.36 6.98882 26.2894 8.36274 26.9737 9.93646C27.6579 11.5102 28 13.198 28 15C28 16.802 27.6579 18.4898 26.9737 20.0635C26.2894 21.6373 25.36 23.0115 24.1853 24.1861C23.0112 25.3603 21.6373 26.2894 20.0635 26.9737C18.4898 27.6579 16.802 28 15 28ZM15 26.2897C16.2546 26.2897 17.4862 26.0844 18.6948 25.6739C19.9034 25.2634 21.0209 24.6476 22.0472 23.8265C21.0209 23.0509 19.9149 22.452 18.7293 22.03C17.5431 21.6085 16.3 21.3978 15 21.3978C13.7 21.3978 12.4569 21.6085 11.2707 22.03C10.0851 22.452 8.97909 23.0509 7.95276 23.8265C8.97909 24.6476 10.0966 25.2634 11.3052 25.6739C12.5138 26.0844 13.7454 26.2897 15 26.2897ZM15 14.1444C15.7756 14.1444 16.4142 13.888 16.9156 13.3751C17.4175 12.8617 17.6685 12.2286 17.6685 11.476C17.6685 10.7009 17.4175 10.0566 16.9156 9.54317C16.4142 9.03027 15.7756 8.77383 15 8.77383C14.2244 8.77383 13.5858 9.03027 13.0844 9.54317C12.5825 10.0566 12.3315 10.7009 12.3315 11.476C12.3315 12.2516 12.5825 12.8904 13.0844 13.3923C13.5858 13.8937 14.2244 14.1444 15 14.1444Z" fill="#A7A7B0"/>
</g>
</svg>
