<svg width="24" height="24" viewBox="0 0 24 24" fill="none" xmlns="http://www.w3.org/2000/svg">
<path d="M12 24C18.6274 24 24 18.6274 24 12C24 5.37258 18.6274 0 12 0C5.37258 0 0 5.37258 0 12C0 18.6274 5.37258 24 12 24Z" fill="#F5455C"/>
<path d="M13.812 15.8282C13.8053 15.3695 13.6186 14.9319 13.2919 14.61C12.9652 14.288 12.5247 14.1075 12.066 14.1075C11.6073 14.1075 11.1669 14.288 10.8402 14.61C10.5135 14.9319 10.3267 15.3695 10.32 15.8282C10.3166 16.0596 10.3593 16.2894 10.4455 16.5042C10.5317 16.719 10.6599 16.9146 10.8224 17.0794C10.9848 17.2443 11.1785 17.3752 11.392 17.4645C11.6055 17.5539 11.8346 17.5999 12.066 17.5999C12.2975 17.5999 12.5265 17.5539 12.7401 17.4645C12.9536 17.3752 13.1472 17.2443 13.3097 17.0794C13.4722 16.9146 13.6003 16.719 13.6866 16.5042C13.7728 16.2894 13.8154 16.0596 13.812 15.8282ZM10.5179 6.96718L10.8031 12.9038C10.8169 13.0339 10.878 13.1545 10.9744 13.2429C11.0708 13.3313 11.1961 13.3814 11.3269 13.384H12.7877C12.9182 13.3805 13.0432 13.33 13.1395 13.2418C13.2357 13.1535 13.2968 13.0336 13.3115 12.9038L13.5967 6.96718C13.6015 6.8951 13.5917 6.82282 13.5676 6.75472C13.5435 6.68662 13.5057 6.62414 13.4567 6.57107C13.4077 6.518 13.3484 6.47546 13.2824 6.44603C13.2165 6.4166 13.1451 6.40091 13.0729 6.3999H11.0421C10.9695 6.39982 10.8976 6.41477 10.8311 6.44383C10.7646 6.47288 10.7046 6.51541 10.6554 6.56871C10.6061 6.62201 10.5685 6.68493 10.5448 6.75352C10.5211 6.8221 10.5121 6.89484 10.5179 6.96718V6.96718Z" fill="white"/>
</svg>
